<?xml version="1.0" encoding="UTF-8"?>
<svg width="89px" height="113px" viewBox="0 0 89 113" version="1.1" xmlns="http://www.w3.org/2000/svg" xmlns:xlink="http://www.w3.org/1999/xlink">
    <!-- Generator: Sketch 52.5 (67469) - http://www.bohemiancoding.com/sketch -->
    <title>Group 5</title>
    <desc>Created with Sketch.</desc>
    <g id="Page-1" stroke="none" stroke-width="1" fill="none" fill-rule="evenodd">
        <g id="Group-5" fill="#000000">
            <path d="M72.6451613,56.516129 L64.5806452,56.516129 L56.516129,56.516129 L48.4516129,56.516129 L40.3870968,56.516129 L32.3225806,56.516129 L24.2580645,56.516129 L24.2580645,48.4516129 L24.2580645,40.3870968 L24.2580645,32.3225806 L24.2580645,24.2580645 L32.3225806,24.2580645 L40.3870968,24.2580645 L48.4516129,24.2580645 L56.516129,24.2580645 L64.5806452,24.2580645 L64.5806452,32.3225806 L64.5806452,40.3870968 L64.5806452,48.4516129 L64.5806452,56.516129 L72.6451613,56.516129 Z M64.5806452,56.516129 L64.5806452,64.5806452 Z M24.2580645,112.967742 L16.1935484,112.967742 L8.12903226,112.967742 L8.12903226,104.903226 L16.1935484,104.903226 L24.2580645,104.903226 L32.3225806,104.903226 L40.3870968,104.903226 L48.4516129,104.903226 L56.516129,104.903226 L64.5806452,104.903226 L72.6451613,104.903226 L80.7096774,104.903226 L80.7096774,112.967742 L72.6451613,112.967742 L64.5806452,112.967742 L56.516129,112.967742 L48.4516129,112.967742 L40.3870968,112.967742 L32.3225806,112.967742 L24.2580645,112.967742 Z M80.7096774,96.8387097 L80.7096774,88.7741935 L80.7096774,80.7096774 L80.7096774,72.6451613 L80.7096774,64.5806452 L80.7096774,56.516129 L80.7096774,48.4516129 L80.7096774,40.3870968 L80.7096774,32.3225806 L80.7096774,24.2580645 L80.7096774,16.1935484 L80.7096774,8.12903226 L88.7741935,8.12903226 L88.7741935,16.1935484 L88.7741935,24.2580645 L88.7741935,32.3225806 L88.7741935,40.3870968 L88.7741935,48.4516129 L88.7741935,56.516129 L88.7741935,64.5806452 L88.7741935,72.6451613 L88.7741935,80.7096774 L88.7741935,88.7741935 L88.7741935,96.8387097 L88.7741935,104.903226 L80.7096774,104.903226 L80.7096774,96.8387097 Z M8.12903226,32.3225806 L8.12903226,40.3870968 L8.12903226,48.4516129 L8.12903226,56.516129 L8.12903226,64.5806452 L8.12903226,72.6451613 L8.12903226,80.7096774 L8.12903226,88.7741935 L8.12903226,96.8387097 L8.12903226,104.903226 L0.064516129,104.903226 L0.064516129,96.8387097 L0.064516129,88.7741935 L0.064516129,80.7096774 L0.064516129,72.6451613 L0.064516129,64.5806452 L0.064516129,56.516129 L0.064516129,48.4516129 L0.064516129,40.3870968 L0.064516129,32.3225806 L0.064516129,24.2580645 L0.064516129,16.1935484 L0.064516129,8.12903226 L8.12903226,8.12903226 L8.12903226,16.1935484 L8.12903226,24.2580645 L8.12903226,32.3225806 Z M72.6451613,8.12903226 L64.5806452,8.12903226 L56.516129,8.12903226 L48.4516129,8.12903226 L40.3870968,8.12903226 L32.3225806,8.12903226 L24.2580645,8.12903226 L16.1935484,8.12903226 L8.12903226,8.12903226 L8.12903226,0.064516129 L16.1935484,0.064516129 L24.2580645,0.064516129 L32.3225806,0.064516129 L40.3870968,0.064516129 L48.4516129,0.064516129 L56.516129,0.064516129 L64.5806452,0.064516129 L72.6451613,0.064516129 L80.7096774,0.064516129 L80.7096774,8.12903226 L72.6451613,8.12903226 Z M64.5806452,88.7741935 L56.516129,88.7741935 L48.4516129,88.7741935 L48.4516129,80.7096774 L56.516129,80.7096774 L64.5806452,80.7096774 L72.6451613,80.7096774 L72.6451613,88.7741935 L64.5806452,88.7741935 Z M16.1935484,80.7096774 L24.2580645,80.7096774 L24.2580645,88.7741935 L16.1935484,88.7741935 L16.1935484,80.7096774 Z M32.3225806,32.3225806 L32.3225806,40.3870968 L40.3870968,40.3870968 L40.3870968,32.3225806 L32.3225806,32.3225806 Z M48.4516129,32.3225806 L48.4516129,40.3870968 L56.516129,40.3870968 L56.516129,32.3225806 L48.4516129,32.3225806 Z" id="Combined-Shape"></path>
        </g>
    </g>
</svg>
