
<svg width="91px" height="70px" viewBox="0 0 91 70" version="1.1" xmlns="http://www.w3.org/2000/svg" xmlns:xlink="http://www.w3.org/1999/xlink">
    <!-- Generator: Sketch 48.2 (47327) - http://www.bohemiancoding.com/sketch -->
    <desc>Created with Sketch.</desc>
    <defs></defs>
    <g id="Page-1" stroke="none" stroke-width="1" fill="none" fill-rule="evenodd">
        <g id="noun_1507809" fill="#000000" fill-rule="nonzero">
            <path d="M70.1670157,49.2340314 L70.1670157,62.8989529 L63.0989529,62.8989529 L63.0989529,56.0664921 L42.3659686,56.0664921 L42.3659686,49.2340314 L49.4340314,49.2340314 L49.4340314,42.4015707 L56.2664921,42.4015707 L56.2664921,49.2340314 C56.2664921,49.2340314 70.1670157,49.2340314 70.1670157,49.2340314 Z M35.5335079,42.4015707 L35.5335079,49.2340314 L42.3659686,49.2340314 L42.3659686,42.4015707 L35.5335079,42.4015707 Z M21.6329843,62.8989529 L28.465445,62.8989529 L28.465445,49.2340314 L21.6329843,49.2340314 L21.6329843,62.8989529 Z M7.73246073,63.134555 L7.73246073,69.9670157 L21.6329843,69.9670157 L21.6329843,63.134555 L7.73246073,63.134555 Z M70.1670157,63.134555 L70.1670157,69.9670157 L83.8319372,69.9670157 L83.8319372,63.134555 L70.1670157,63.134555 Z M0.9,62.8989529 L7.73246073,62.8989529 L7.73246073,49.2340314 L0.9,49.2340314 L0.9,62.8989529 Z M84.0675393,49.2340314 L84.0675393,62.8989529 L90.9,62.8989529 L90.9,49.2340314 L84.0675393,49.2340314 Z M28.465445,7.53246073 L21.6329843,7.53246073 L21.6329843,21.4329843 L28.465445,21.4329843 L28.465445,7.53246073 Z M49.1984293,7.53246073 L49.1984293,0.7 L28.465445,0.7 L28.465445,7.53246073 L49.1984293,7.53246073 Z M76.9994764,35.3335079 L70.1670157,35.3335079 L70.1670157,21.4329843 L76.9994764,21.4329843 L76.9994764,14.6005236 L56.2664921,14.6005236 L56.2664921,21.4329843 L63.0989529,21.4329843 L63.0989529,28.5010471 L21.6329843,28.5010471 L21.6329843,28.265445 L21.6329843,21.4329843 L14.8005236,21.4329843 L14.8005236,42.4015707 L7.73246073,42.4015707 L7.73246073,49.2340314 L21.6329843,49.2340314 L21.6329843,35.5691099 L28.465445,35.5691099 L28.465445,42.1659686 L35.2979058,42.1659686 L35.2979058,35.5691099 L35.5335079,35.5691099 L56.2664921,35.5691099 L56.2664921,42.1659686 L63.0989529,42.1659686 L63.0989529,35.5691099 L70.1670157,35.5691099 L70.1670157,49.2340314 L83.8319372,49.2340314 L83.8319372,42.4015707 L76.9994764,42.4015707 C76.9994764,42.4015707 76.9994764,35.3335079 76.9994764,35.3335079 Z" id="Shape"></path>
        </g>
    </g>
</svg>
