<svg width="64px" height="60px" viewBox="0 0 64 60" version="1.1" xmlns="http://www.w3.org/2000/svg" xmlns:xlink="http://www.w3.org/1999/xlink">
    <g id="Page-1" stroke="none" stroke-width="1" fill="none" fill-rule="evenodd">
        <g id="noun_397382_cc" fill="#000000">
            <g id="Group">
                <rect id="Rectangle-path" x="0" y="24" width="4" height="32"></rect>
                <rect id="Rectangle-path" x="60" y="24" width="4" height="32"></rect>
                <rect id="Rectangle-path" x="10" y="30" width="4" height="4"></rect>
                <rect id="Rectangle-path" x="14" y="38" width="4" height="4"></rect>
                <rect id="Rectangle-path" x="18" y="30" width="4" height="4"></rect>
                <rect id="Rectangle-path" x="10" y="46" width="4" height="4"></rect>
                <rect id="Rectangle-path" x="26" y="30" width="4" height="4"></rect>
                <rect id="Rectangle-path" x="22" y="38" width="4" height="4"></rect>
                <rect id="Rectangle-path" x="42" y="0" width="4" height="8"></rect>
                <rect id="Rectangle-path" x="34" y="8" width="8" height="4"></rect>
                <rect id="Rectangle-path" x="34" y="30" width="4" height="4"></rect>
                <rect id="Rectangle-path" x="30" y="38" width="4" height="4"></rect>
                <rect id="Rectangle-path" x="42" y="30" width="4" height="4"></rect>
                <rect id="Rectangle-path" x="38" y="38" width="4" height="4"></rect>
                <rect id="Rectangle-path" x="46" y="38" width="4" height="4"></rect>
                <rect id="Rectangle-path" x="50" y="30" width="4" height="4"></rect>
                <rect id="Rectangle-path" x="50" y="46" width="4" height="4"></rect>
                <rect id="Rectangle-path" x="18" y="46" width="28" height="4"></rect>
                <polygon id="Shape" points="60 24 60 20 34 20 34 12 30 12 30 20 4 20 4 24"></polygon>
                <rect id="Rectangle-path" x="4" y="56" width="56" height="4"></rect>
            </g>
        </g>
    </g>
</svg>
