<svg width="73px" height="50px" viewBox="0 0 73 50" version="1.1" xmlns="http://www.w3.org/2000/svg" xmlns:xlink="http://www.w3.org/1999/xlink">
    <path d="M29.7351351,1.36756757 L32.4378378,1.36756757 L32.4378378,2.71891892 L35.1405405,2.71891892 L35.1405405,4.07027027 L37.8378378,4.07027027 L37.8378378,2.71891892 L40.5405405,2.71891892 L40.5405405,1.36756757 L43.2432432,1.36756757 L43.2432432,0.0162162162 L72.972973,0.0162162162 L72.972973,45.9459459 L43.2432432,45.9459459 L43.2432432,47.2972973 L40.5405405,47.2972973 L40.5405405,48.6486486 L37.8378378,48.6486486 L37.8378378,50 L35.1351351,50 L35.1351351,48.6486486 L32.4378378,48.6486486 L32.4378378,47.2972973 L29.7351351,47.2972973 L29.7351351,45.9459459 L0.00540540541,45.9459459 L0.00540540541,0.0162162162 L29.7351351,0.0162162162 L29.7351351,1.36756757 Z M29.7351351,2.71891892 L2.70810811,2.71891892 L2.70810811,43.2432432 L29.7351351,43.2432432 L29.7351351,44.5945946 L32.4378378,44.5945946 L32.4378378,45.9459459 L35.1405405,45.9459459 L35.1405405,6.77297297 L35.1351351,6.77297297 L35.1351351,5.42162162 L32.4378378,5.42162162 L32.4378378,4.07027027 L29.7351351,4.07027027 L29.7351351,2.71891892 Z M43.2432432,2.71891892 L43.2432432,4.07027027 L40.5405405,4.07027027 L40.5405405,5.42162162 L37.8378378,5.42162162 L37.8378378,6.75675676 L37.8432432,6.75675676 L37.8432432,45.9459459 L40.5405405,45.9459459 L40.5405405,44.5945946 L43.2432432,44.5945946 L43.2432432,43.2432432 L70.2702703,43.2432432 L70.2702703,2.71891892 L43.2432432,2.71891892 Z M43.2432432,35.1418919 L64.8648649,35.1418919 L64.8648649,36.4932432 L43.2432432,36.4932432 L43.2432432,35.1418919 Z M29.7351351,36.4932432 L8.11351351,36.4932432 L8.11351351,35.1418919 L29.7351351,35.1418919 L29.7351351,36.4932432 Z M43.2432432,29.7364865 L64.8648649,29.7364865 L64.8648649,31.0878378 L43.2432432,31.0878378 L43.2432432,29.7364865 Z M29.7351351,31.0878378 L8.11351351,31.0878378 L8.11351351,29.7364865 L29.7351351,29.7364865 L29.7351351,31.0878378 Z M43.2432432,24.35 L64.8648649,24.35 L64.8648649,25.7013514 L43.2432432,25.7013514 L43.2432432,24.35 Z M29.7351351,25.7013514 L8.11351351,25.7013514 L8.11351351,24.35 L29.7351351,24.35 L29.7351351,25.7013514 Z M43.2432432,18.9445946 L64.8648649,18.9445946 L64.8648649,20.2959459 L43.2432432,20.2959459 L43.2432432,18.9445946 Z M29.7351351,20.2959459 L8.11351351,20.2959459 L8.11351351,18.9445946 L29.7351351,18.9445946 L29.7351351,20.2959459 Z M43.2432432,13.5135135 L64.8648649,13.5135135 L64.8648649,14.8648649 L43.2432432,14.8648649 L43.2432432,13.5135135 Z M29.7351351,14.8648649 L8.11351351,14.8648649 L8.11351351,13.5135135 L29.7351351,13.5135135 L29.7351351,14.8648649 Z M43.2432432,8.10810811 L64.8648649,8.10810811 L64.8648649,9.45945946 L43.2432432,9.45945946 L43.2432432,8.10810811 Z M29.7351351,9.45945946 L8.11351351,9.45945946 L8.11351351,8.10810811 L29.7351351,8.10810811 L29.7351351,9.45945946 Z" id="Shape" stroke="none" fill="#000000" fill-rule="evenodd"></path>
</svg>
