<svg xmlns="http://www.w3.org/2000/svg" xmlns:xlink="http://www.w3.org/1999/xlink" xmlns:sketch="http://www.bohemiancoding.com/sketch/ns" viewBox="0 0 91 46" version="1.1" x="0px" y="0px"><title>rect9342</title><desc>Created with Sketch.</desc><g stroke="none" stroke-width="1" fill="none" fill-rule="evenodd" sketch:type="MSPage"><path d="M19.4774843,7.25137143 L25.9060557,7.25137143 L25.9060557,0.8228 L19.4774843,0.8228 L19.4774843,7.25137143 Z M13.0489129,13.6799429 L19.4774843,13.6799429 L19.4774843,7.25137143 L13.0489129,7.25137143 L13.0489129,13.6799429 Z M6.62034143,20.1085143 L13.0489129,20.1085143 L13.0489129,13.6799429 L6.62034143,13.6799429 L6.62034143,20.1085143 Z M0.19177,26.5370857 L6.62034143,26.5370857 L6.62034143,20.1085143 L0.19177,20.1085143 L0.19177,26.5370857 Z M6.62034143,32.9656571 L13.0489129,32.9656571 L13.0489129,26.5370857 L6.62034143,26.5370857 L6.62034143,32.9656571 Z M13.0489129,39.3942286 L19.4774843,39.3942286 L19.4774843,32.9656571 L13.0489129,32.9656571 L13.0489129,39.3942286 Z M19.4774843,45.8228 L25.9060557,45.8228 L25.9060557,39.3942286 L19.4774843,39.3942286 L19.4774843,45.8228 Z M32.3346271,45.8228 L38.7631986,45.8228 L38.7631986,39.3942286 L32.3346271,39.3942286 L32.3346271,45.8228 Z M38.7631986,39.3942286 L45.19177,39.3942286 L45.19177,32.9656571 L38.7631986,32.9656571 L38.7631986,39.3942286 Z M38.7631986,32.9656571 L45.19177,32.9656571 L45.19177,26.5370857 L38.7631986,26.5370857 L38.7631986,32.9656571 Z M45.19177,26.5370857 L51.6203414,26.5370857 L51.6203414,20.1085143 L45.19177,20.1085143 L45.19177,26.5370857 Z M45.19177,20.1085143 L51.6203414,20.1085143 L51.6203414,13.6799429 L45.19177,13.6799429 L45.19177,20.1085143 Z M51.6203414,13.6799429 L58.0489129,13.6799429 L58.0489129,7.25137143 L51.6203414,7.25137143 L51.6203414,13.6799429 Z M64.4774843,45.8228 L70.9060557,45.8228 L70.9060557,39.3942286 L64.4774843,39.3942286 L64.4774843,45.8228 Z M70.9060557,39.3942286 L77.3346271,39.3942286 L77.3346271,32.9656571 L70.9060557,32.9656571 L70.9060557,39.3942286 Z M77.3346271,32.9656571 L83.7631986,32.9656571 L83.7631986,26.5370857 L77.3346271,26.5370857 L77.3346271,32.9656571 Z M83.7631986,26.5370857 L90.19177,26.5370857 L90.19177,20.1085143 L83.7631986,20.1085143 L83.7631986,26.5370857 Z M77.3346271,20.1085143 L83.7631986,20.1085143 L83.7631986,13.6799429 L77.3346271,13.6799429 L77.3346271,20.1085143 Z M70.9060557,13.6799429 L77.3346271,13.6799429 L77.3346271,7.25137143 L70.9060557,7.25137143 L70.9060557,13.6799429 Z M64.4774843,7.25137143 L70.9060557,7.25137143 L70.9060557,0.8228 L64.4774843,0.8228 L64.4774843,7.25137143 Z" fill="#000000" sketch:type="MSShapeGroup"></path></g></svg>