<svg xmlns="http://www.w3.org/2000/svg" xmlns:xlink="http://www.w3.org/1999/xlink" xmlns:sketch="http://www.bohemiancoding.com/sketch/ns" viewBox="0 0 90 82" version="1.1" x="0px" y="0px"><title>Rectangle-1-Copy-6</title><desc>Created with Sketch.</desc><g stroke="none" stroke-width="1" fill="none" fill-rule="evenodd" sketch:type="MSPage"><path d="M24.546,0 L32.728,0 L32.728,8.182 L24.546,8.182 L24.546,0 L24.546,0 Z M16.364,0 L24.546,0 L24.546,8.182 L16.364,8.182 L16.364,0 L16.364,0 Z M32.728,8.182 L40.91,8.182 L40.91,16.364 L32.728,16.364 L32.728,8.182 L32.728,8.182 Z M24.546,8.182 L32.728,8.182 L32.728,16.364 L24.546,16.364 L24.546,8.182 L24.546,8.182 Z M16.364,8.182 L24.546,8.182 L24.546,16.364 L16.364,16.364 L16.364,8.182 L16.364,8.182 Z M32.728,16.364 L40.91,16.364 L40.91,24.546 L32.728,24.546 L32.728,16.364 L32.728,16.364 Z M24.546,16.364 L32.728,16.364 L32.728,24.546 L24.546,24.546 L24.546,16.364 L24.546,16.364 Z M16.364,16.364 L24.546,16.364 L24.546,24.546 L16.364,24.546 L16.364,16.364 L16.364,16.364 Z M24.546,24.546 L32.728,24.546 L32.728,32.728 L24.546,32.728 L24.546,24.546 L24.546,24.546 Z M16.364,24.546 L24.546,24.546 L24.546,32.728 L16.364,32.728 L16.364,24.546 L16.364,24.546 Z M8.182,24.546 L16.364,24.546 L16.364,32.728 L8.182,32.728 L8.182,24.546 L8.182,24.546 Z M24.546,32.728 L32.728,32.728 L32.728,40.91 L24.546,40.91 L24.546,32.728 L24.546,32.728 Z M16.364,32.728 L24.546,32.728 L24.546,40.91 L16.364,40.91 L16.364,32.728 L16.364,32.728 Z M8.182,32.728 L16.364,32.728 L16.364,40.91 L8.182,40.91 L8.182,32.728 L8.182,32.728 Z M32.728,40.91 L40.91,40.91 L40.91,49.092 L32.728,49.092 L32.728,40.91 L32.728,40.91 Z M24.546,40.91 L32.728,40.91 L32.728,49.092 L24.546,49.092 L24.546,40.91 L24.546,40.91 Z M16.364,40.91 L24.546,40.91 L24.546,49.092 L16.364,49.092 L16.364,40.91 L16.364,40.91 Z M40.91,49.092 L49.092,49.092 L49.092,57.274 L40.91,57.274 L40.91,49.092 L40.91,49.092 Z M40.91,40.91 L49.092,40.91 L49.092,49.092 L40.91,49.092 L40.91,40.91 L40.91,40.91 Z M32.728,49.092 L40.91,49.092 L40.91,57.274 L32.728,57.274 L32.728,49.092 L32.728,49.092 Z M24.546,49.092 L32.728,49.092 L32.728,57.274 L24.546,57.274 L24.546,49.092 L24.546,49.092 Z M49.092,57.274 L57.274,57.274 L57.274,65.456 L49.092,65.456 L49.092,57.274 L49.092,57.274 Z M40.91,57.274 L49.092,57.274 L49.092,65.456 L40.91,65.456 L40.91,57.274 L40.91,57.274 Z M40.91,65.456 L49.092,65.456 L49.092,73.638 L40.91,73.638 L40.91,65.456 L40.91,65.456 Z M32.728,57.274 L40.91,57.274 L40.91,65.456 L32.728,65.456 L32.728,57.274 L32.728,57.274 Z M65.456,40.91 L73.638,40.91 L73.638,49.092 L65.456,49.092 L65.456,40.91 L65.456,40.91 Z M57.274,40.91 L65.456,40.91 L65.456,49.092 L57.274,49.092 L57.274,40.91 L57.274,40.91 Z M49.092,40.91 L57.274,40.91 L57.274,49.092 L49.092,49.092 L49.092,40.91 L49.092,40.91 Z M57.274,49.092 L65.456,49.092 L65.456,57.274 L57.274,57.274 L57.274,49.092 L57.274,49.092 Z M49.092,49.092 L57.274,49.092 L57.274,57.274 L49.092,57.274 L49.092,49.092 L49.092,49.092 Z M73.638,32.728 L81.82,32.728 L81.82,40.91 L73.638,40.91 L73.638,32.728 L73.638,32.728 Z M65.456,32.728 L73.638,32.728 L73.638,40.91 L65.456,40.91 L65.456,32.728 L65.456,32.728 Z M57.274,32.728 L65.456,32.728 L65.456,40.91 L57.274,40.91 L57.274,32.728 L57.274,32.728 Z M73.638,24.546 L81.82,24.546 L81.82,32.728 L73.638,32.728 L73.638,24.546 L73.638,24.546 Z M65.456,24.546 L73.638,24.546 L73.638,32.728 L65.456,32.728 L65.456,24.546 L65.456,24.546 Z M57.274,24.546 L65.456,24.546 L65.456,32.728 L57.274,32.728 L57.274,24.546 L57.274,24.546 Z M73.638,16.364 L81.82,16.364 L81.82,24.546 L73.638,24.546 L73.638,16.364 L73.638,16.364 Z M65.456,16.364 L73.638,16.364 L73.638,24.546 L65.456,24.546 L65.456,16.364 L65.456,16.364 Z M57.274,16.364 L65.456,16.364 L65.456,24.546 L57.274,24.546 L57.274,16.364 L57.274,16.364 Z M65.456,8.182 L73.638,8.182 L73.638,16.364 L65.456,16.364 L65.456,8.182 L65.456,8.182 Z M57.274,8.182 L65.456,8.182 L65.456,16.364 L57.274,16.364 L57.274,8.182 L57.274,8.182 Z M49.092,8.182 L57.274,8.182 L57.274,16.364 L49.092,16.364 L49.092,8.182 L49.092,8.182 Z M49.092,24.546 L57.274,24.546 L57.274,32.728 L49.092,32.728 L49.092,24.546 L49.092,24.546 Z M40.91,24.546 L49.092,24.546 L49.092,32.728 L40.91,32.728 L40.91,24.546 L40.91,24.546 Z M49.092,16.364 L57.274,16.364 L57.274,24.546 L49.092,24.546 L49.092,16.364 L49.092,16.364 Z M40.91,16.364 L49.092,16.364 L49.092,24.546 L40.91,24.546 L40.91,16.364 L40.91,16.364 Z M32.728,24.546 L40.91,24.546 L40.91,32.728 L32.728,32.728 L32.728,24.546 L32.728,24.546 Z M49.092,32.728 L57.274,32.728 L57.274,40.91 L49.092,40.91 L49.092,32.728 L49.092,32.728 Z M40.91,32.728 L49.092,32.728 L49.092,40.91 L40.91,40.91 L40.91,32.728 L40.91,32.728 Z M32.728,32.728 L40.91,32.728 L40.91,40.91 L32.728,40.91 L32.728,32.728 L32.728,32.728 Z M8.182,8.182 L16.364,8.182 L16.364,16.364 L8.182,16.364 L8.182,8.182 L8.182,8.182 Z M8.182,16.364 L16.364,16.364 L16.364,24.546 L8.182,24.546 L8.182,16.364 L8.182,16.364 Z M-9.09494702e-13,16.364 L8.182,16.364 L8.182,24.546 L-9.09494702e-13,24.546 L-9.09494702e-13,16.364 L-9.09494702e-13,16.364 Z M-9.09494702e-13,24.546 L8.182,24.546 L8.182,32.728 L-9.09494702e-13,32.728 L-9.09494702e-13,24.546 L-9.09494702e-13,24.546 Z M-9.09494702e-13,32.728 L8.182,32.728 L8.182,40.91 L-9.09494702e-13,40.91 L-9.09494702e-13,32.728 L-9.09494702e-13,32.728 Z M8.182,40.91 L16.364,40.91 L16.364,49.092 L8.182,49.092 L8.182,40.91 L8.182,40.91 Z M16.364,49.092 L24.546,49.092 L24.546,57.274 L16.364,57.274 L16.364,49.092 L16.364,49.092 Z M24.546,57.274 L32.728,57.274 L32.728,65.456 L24.546,65.456 L24.546,57.274 L24.546,57.274 Z M32.728,65.456 L40.91,65.456 L40.91,73.638 L32.728,73.638 L32.728,65.456 L32.728,65.456 Z M40.91,73.638 L49.092,73.638 L49.092,81.82 L40.91,81.82 L40.91,73.638 L40.91,73.638 Z M49.092,65.456 L57.274,65.456 L57.274,73.638 L49.092,73.638 L49.092,65.456 L49.092,65.456 Z M57.274,57.274 L65.456,57.274 L65.456,65.456 L57.274,65.456 L57.274,57.274 L57.274,57.274 Z M65.456,49.092 L73.638,49.092 L73.638,57.274 L65.456,57.274 L65.456,49.092 L65.456,49.092 Z M73.638,40.91 L81.82,40.91 L81.82,49.092 L73.638,49.092 L73.638,40.91 L73.638,40.91 Z M81.82,32.728 L90.002,32.728 L90.002,40.91 L81.82,40.91 L81.82,32.728 L81.82,32.728 Z M81.82,24.546 L90.002,24.546 L90.002,32.728 L81.82,32.728 L81.82,24.546 L81.82,24.546 Z M81.82,16.364 L90.002,16.364 L90.002,24.546 L81.82,24.546 L81.82,16.364 L81.82,16.364 Z M73.638,8.182 L81.82,8.182 L81.82,16.364 L73.638,16.364 L73.638,8.182 L73.638,8.182 Z M65.456,0 L73.638,0 L73.638,8.182 L65.456,8.182 L65.456,0 L65.456,0 Z M57.274,0 L65.456,0 L65.456,8.182 L57.274,8.182 L57.274,0 L57.274,0 Z" fill="#000000" sketch:type="MSShapeGroup"></path></g></svg>