
<svg width="90px" height="80px" viewBox="0 0 90 80" version="1.1" xmlns="http://www.w3.org/2000/svg" xmlns:xlink="http://www.w3.org/1999/xlink">
    <!-- Generator: Sketch 48.2 (47327) - http://www.bohemiancoding.com/sketch -->
    <desc>Created with Sketch.</desc>
    <defs></defs>
    <g id="Page-1" stroke="none" stroke-width="1" fill="none" fill-rule="evenodd">
        <g id="noun_16861" fill="#000000" fill-rule="nonzero">
            <path d="M90,10 L81,10 L81,0 L50,0 L50,10 L40,10 L40,0 L9,0 L9,10 L0,10 L0,40 L9,40 L9,51 L19,51 L19,60 L29,60 L29,71 L39,71 L39,80 L51,80 L51,71 L61,71 L61,60 L71,60 L71,51 L81,51 L81,40 L90,40 L90,10 Z M60,50 L60,60 L49,60 L49,70 L41,70 L41,60 L30,60 L30,50 L21,50 L21,39 L10,39 L10,11 L39,11 L39,20 L51,20 L51,11 L80,11 L80,39 L69,39 L69,50 L60,50 Z" id="Shape"></path>
        </g>
    </g>
</svg>
