<svg width="55px" height="50px" viewBox="7 1 55 50" version="1.1" xmlns="http://www.w3.org/2000/svg" xmlns:xlink="http://www.w3.org/1999/xlink">
    <g id="Group" stroke="none" stroke-width="1" fill="none" fill-rule="evenodd" transform="translate(7.000000, 1.000000)">
        <path d="M49.8355263,0.328947368 L35.0328947,0.328947368 L35.0328947,5.26315789 L30.0986842,5.26315789 L30.0986842,10.1973684 L25.1644737,10.1973684 L25.1644737,5.26315789 L20.2302632,5.26315789 L20.2302632,0.328947368 L5.42763158,0.328947368 L5.42763158,5.26315789 L0.493421053,5.26315789 L0.493421053,25 L5.42763158,25 L5.42763158,29.9342105 L10.3618421,29.9342105 L10.3618421,34.8684211 L15.2960526,34.8684211 L15.2960526,39.8026316 L20.2302632,39.8026316 L20.2302632,44.7368421 L25.1644737,44.7368421 L25.1644737,49.6710526 L30.0986842,49.6710526 L30.0986842,44.7368421 L35.0328947,44.7368421 L35.0328947,39.8026316 L39.9671053,39.8026316 L39.9671053,34.8684211 L44.9013158,34.8684211 L44.9013158,29.9342105 L49.8355263,29.9342105 L49.8355263,25 L54.7697368,25 L54.7697368,5.26315789 L49.8355263,5.26315789 L49.8355263,0.328947368 Z M15.2960526,10.1973684 L10.3618421,10.1973684 L10.3618421,15.1315789 L10.3618421,20.0657895 L5.42763158,20.0657895 L5.42763158,15.1315789 L5.42763158,10.1973684 L10.3618421,10.1973684 L10.3618421,5.26315789 L15.2960526,5.26315789 L15.2960526,10.1973684 Z" id="Shape" fill="#000000"></path>
    </g>
</svg>
