<svg width="50px" height="50px" viewBox="245 1 50 50" version="1.1" xmlns="http://www.w3.org/2000/svg" xmlns:xlink="http://www.w3.org/1999/xlink">
    <g id="Group-3" stroke="none" stroke-width="1" fill="none" fill-rule="evenodd" transform="translate(245.000000, 1.000000)">
        <path d="M45.060479,4.94759247 L49.5559835,4.94759247 L49.5559835,0.452087912 L45.060479,0.452087912 L45.060479,4.94759247 Z M40.5649744,4.94759247 L45.060479,4.94759247 L45.060479,0.452087912 L40.5649744,0.452087912 L40.5649744,4.94759247 Z M36.0694698,9.44309703 L40.5649744,9.44309703 L40.5649744,4.94759247 L36.0694698,4.94759247 L36.0694698,9.44309703 Z M31.5739653,9.44309703 L36.0694698,9.44309703 L36.0694698,4.94759247 L31.5739653,4.94759247 L31.5739653,9.44309703 Z M27.0784607,13.9386016 L31.5739653,13.9386016 L31.5739653,9.44309703 L27.0784607,9.44309703 L27.0784607,13.9386016 Z M22.5829562,13.9386016 L27.0784607,13.9386016 L27.0784607,9.44309703 L22.5829562,9.44309703 L22.5829562,13.9386016 Z M18.0874516,18.4341062 L22.5829562,18.4341062 L22.5829562,13.9386016 L18.0874516,13.9386016 L18.0874516,18.4341062 Z M13.5919471,18.4341062 L18.0874516,18.4341062 L18.0874516,13.9386016 L13.5919471,13.9386016 L13.5919471,18.4341062 Z M9.09644253,22.9296107 L13.5919471,22.9296107 L13.5919471,18.4341062 L9.09644253,18.4341062 L9.09644253,22.9296107 Z M4.60093795,22.9296107 L9.09644253,22.9296107 L9.09644253,18.4341062 L4.60093795,18.4341062 L4.60093795,22.9296107 Z M45.060479,9.44309703 L49.5559835,9.44309703 L49.5559835,4.94759247 L45.060479,4.94759247 L45.060479,9.44309703 Z M45.060479,13.9386016 L49.5559835,13.9386016 L49.5559835,9.44309703 L45.060479,9.44309703 L45.060479,13.9386016 Z M40.5649744,18.4341062 L45.060479,18.4341062 L45.060479,13.9386016 L40.5649744,13.9386016 L40.5649744,18.4341062 Z M40.5649744,22.9296107 L45.060479,22.9296107 L45.060479,18.4341062 L40.5649744,18.4341062 L40.5649744,22.9296107 Z M36.0694698,27.4251153 L40.5649744,27.4251153 L40.5649744,22.9296107 L36.0694698,22.9296107 L36.0694698,27.4251153 Z M36.0694698,31.9206198 L40.5649744,31.9206198 L40.5649744,27.4251153 L36.0694698,27.4251153 L36.0694698,31.9206198 Z M31.5739653,36.4161243 L36.0694698,36.4161243 L36.0694698,31.9206198 L31.5739653,31.9206198 L31.5739653,36.4161243 Z M31.5739653,40.9116289 L36.0694698,40.9116289 L36.0694698,36.4161243 L31.5739653,36.4161243 L31.5739653,40.9116289 Z M27.0784607,45.4071335 L31.5739653,45.4071335 L31.5739653,40.9116289 L27.0784607,40.9116289 L27.0784607,45.4071335 Z M27.0784607,49.902638 L31.5739653,49.902638 L31.5739653,45.4071335 L27.0784607,45.4071335 L27.0784607,49.902638 Z M22.5829562,45.4071335 L27.0784607,45.4071335 L27.0784607,40.9116289 L22.5829562,40.9116289 L22.5829562,45.4071335 Z M22.5829562,40.9116289 L27.0784607,40.9116289 L27.0784607,36.4161243 L22.5829562,36.4161243 L22.5829562,40.9116289 Z M18.0874516,36.4161243 L22.5829562,36.4161243 L22.5829562,31.9206198 L18.0874516,31.9206198 L18.0874516,36.4161243 Z M18.0874516,31.9206198 L22.5829562,31.9206198 L22.5829562,27.4251153 L18.0874516,27.4251153 L18.0874516,31.9206198 Z M22.5829562,27.4251153 L27.0784607,27.4251153 L27.0784607,22.9296107 L22.5829562,22.9296107 L22.5829562,27.4251153 Z M27.0784607,22.9296107 L31.5739653,22.9296107 L31.5739653,18.4341062 L27.0784607,18.4341062 L27.0784607,22.9296107 Z M31.5739653,18.4341062 L36.0694698,18.4341062 L36.0694698,13.9386016 L31.5739653,13.9386016 L31.5739653,18.4341062 Z M36.0694698,13.9386016 L40.5649744,13.9386016 L40.5649744,9.44309703 L36.0694698,9.44309703 L36.0694698,13.9386016 Z M13.5919471,31.9206198 L18.0874516,31.9206198 L18.0874516,27.4251153 L13.5919471,27.4251153 L13.5919471,31.9206198 Z M9.09644253,31.9206198 L13.5919471,31.9206198 L13.5919471,27.4251153 L9.09644253,27.4251153 L9.09644253,31.9206198 Z M4.60093795,27.4251153 L9.09644253,27.4251153 L9.09644253,22.9296107 L4.60093795,22.9296107 L4.60093795,27.4251153 Z M0.105434066,27.4251153 L4.60093862,27.4251153 L4.60093862,22.9296107 L0.105434066,22.9296107 L0.105434066,27.4251153 Z" id="Shape" fill="#000000"></path>
    </g>
</svg>
