<svg xmlns="http://www.w3.org/2000/svg" xmlns:xlink="http://www.w3.org/1999/xlink" version="1.0" x="0px" y="0px" viewBox="0 0 100 100" enable-background="new 0 0 100 100" xml:space="preserve"><rect x="47.9162712" y="23.3330212" width="4.5832305" height="4.5821257"></rect><rect x="70.8325272" y="78.33181" width="4.5842128" height="9.166338"></rect><rect x="43.3330803" y="18.748848" width="4.5832305" height="4.5842128"></rect><rect x="57.082592" y="32.4994049" width="4.5832305" height="4.5822487"></rect><rect x="52.4995232" y="27.9151688" width="4.5831079" height="4.5842128"></rect><rect x="66.2490921" y="41.6658478" width="4.5834761" height="4.5822487"></rect><rect x="61.6658516" y="87.4981766" width="9.166707" height="4.5842128"></rect><rect x="61.665844" y="37.0816116" width="4.5832305" height="4.5842128"></rect><rect x="38.7498283" y="14.1665783" width="4.5832305" height="4.5822487"></rect><rect x="66.2490921" y="69.1653671" width="4.5834761" height="9.166461"></rect><rect x="61.665844" y="59.9987411" width="4.5832305" height="9.166584"></rect><rect x="52.4995232" y="69.1653671" width="4.5831079" height="9.166461"></rect><rect x="57.082592" y="78.33181" width="4.5832305" height="9.166338"></rect><polygon points="80,55.4145546 80,50.8323059 75.4167709,50.8323059 75.4167709,46.2480927 70.8325577,46.2480927   70.8325577,50.8323059 57.0826187,50.8323059 57.0826187,59.9987679 61.6658516,59.9987679 61.6658516,55.4145546 "></polygon><polygon points="34.1665878,14.166584 38.7498207,14.166584 38.7498207,9.5823717 34.1665878,9.5823717 34.1665878,5 29.5833588,5   29.5833588,73.7475967 34.1665878,73.7475967 34.1665878,69.1653519 38.7498207,69.1653519 38.7498207,64.5811386   34.1665878,64.5811386 "></polygon><rect x="38.7498283" y="59.9987907" width="4.5832305" height="4.5823712"></rect><rect x="43.3330803" y="55.4145584" width="4.5832305" height="4.5842128"></rect><rect x="47.9162712" y="59.9987411" width="4.5832305" height="9.166584"></rect></svg>