<svg xmlns="http://www.w3.org/2000/svg" xmlns:xlink="http://www.w3.org/1999/xlink" xmlns:sketch="http://www.bohemiancoding.com/sketch/ns" viewBox="0 0 91 91" version="1.1" x="0px" y="0px"><title>rect14786</title><desc>Created with Sketch.</desc><g stroke="none" stroke-width="1" fill="none" fill-rule="evenodd" sketch:type="MSPage"><path d="M82.9883,0.6641 L82.9883,8.1641 L75.4883,8.1641 L67.9883,8.1641 L60.4883,8.1641 L52.9883,8.1641 L45.4883,8.1641 L37.9883,8.1641 L30.4883,8.1641 L22.9883,8.1641 L15.4883,8.1641 L7.9883,8.1641 L7.9883,0.6641 L15.4883,0.6641 L22.9883,0.6641 L30.4883,0.6641 L37.9883,0.6641 L45.4883,0.6641 L52.9883,0.6641 L60.4883,0.6641 L67.9883,0.6641 L75.4883,0.6641 L82.9883,0.6641 L82.9883,0.6641 Z M7.9883,8.1641 L7.9883,15.6641 L7.9883,23.1641 L7.9883,30.6641 L7.9883,38.1641 L7.9883,45.6641 L7.9883,53.1641 L7.9883,60.6641 L7.9883,68.1641 L7.9883,75.6641 L15.4883,75.6641 L15.4883,83.1641 L7.9883,83.1641 L7.9883,90.6641 L0.4883,90.6641 L0.4883,83.1641 L0.4883,75.6641 L0.4883,68.1641 L0.4883,60.6641 L0.4883,53.1641 L0.4883,45.6641 L0.4883,38.1641 L0.4883,30.6641 L0.4883,23.1641 L0.4883,15.6641 L0.4883,8.1641 L7.9883,8.1641 L7.9883,8.1641 Z M15.4883,75.6641 L15.4883,68.1641 L22.9883,68.1641 L22.9883,75.6641 L15.4883,75.6641 L15.4883,75.6641 Z M22.9883,68.1641 L22.9883,60.6641 L30.4883,60.6641 L30.4883,68.1641 L22.9883,68.1641 L22.9883,68.1641 Z M30.4883,60.6641 L30.4883,53.1641 L37.9883,53.1641 L45.4883,53.1641 L52.9883,53.1641 L60.4883,53.1641 L67.9883,53.1641 L75.4883,53.1641 L82.9883,53.1641 L82.9883,60.6641 L75.4883,60.6641 L67.9883,60.6641 L60.4883,60.6641 L52.9883,60.6641 L45.4883,60.6641 L37.9883,60.6641 L30.4883,60.6641 L30.4883,60.6641 Z M82.9883,53.1641 L82.9883,45.6641 L82.9883,38.1641 L82.9883,30.6641 L82.9883,23.1641 L82.9883,15.6641 L82.9883,8.1641 L90.4883,8.1641 L90.4883,15.6641 L90.4883,23.1641 L90.4883,30.6641 L90.4883,38.1641 L90.4883,45.6641 L90.4883,53.1641 L82.9883,53.1641 L82.9883,53.1641 Z" fill="#000000" sketch:type="MSShapeGroup"></path></g></svg>