<?xml version="1.0" encoding="UTF-8"?>
<svg width="92px" height="52px" viewBox="0 0 92 52" version="1.1" xmlns="http://www.w3.org/2000/svg" xmlns:xlink="http://www.w3.org/1999/xlink">
    <!-- Generator: Sketch 52.5 (67469) - http://www.bohemiancoding.com/sketch -->
    <title>twitter</title>
    <desc>Created with Sketch.</desc>
    <g id="Page-1" stroke="none" stroke-width="1" fill="none" fill-rule="evenodd">
        <g id="twitter" fill="#000000">
            <path d="M61.2898919,25.9220476 L66.3169189,25.9220476 L71.3439459,25.9220476 L71.3439459,30.9696667 L66.3169189,30.9696667 L61.2898919,30.9696667 L56.2628649,30.9696667 L56.2628649,25.9220476 L61.2898919,25.9220476 Z M21.0736757,15.8268095 L26.1007027,15.8268095 L31.1277297,15.8268095 L36.1547568,15.8268095 L41.1817838,15.8268095 L41.1817838,10.7791905 L41.1817838,5.73157143 L46.2088108,5.73157143 L46.2088108,10.7791905 L46.2088108,15.8268095 L46.2088108,20.8744286 L41.1817838,20.8744286 L36.1547568,20.8744286 L31.1277297,20.8744286 L26.1007027,20.8744286 L21.0736757,20.8744286 L16.0466486,20.8744286 L11.0196216,20.8744286 L5.99259459,20.8744286 L5.99259459,25.9220476 L0.96556757,25.9220476 L0.96556757,20.8744286 L0.96556757,15.8268095 L5.99259459,15.8268095 L11.0196216,15.8268095 L16.0466486,15.8268095 L21.0736757,15.8268095 Z M51.2358378,0.683952381 L56.2628649,0.683952381 L61.2898919,0.683952381 L66.3169189,0.683952381 L71.3439459,0.683952381 L71.3439459,5.73157143 L66.3169189,5.73157143 L61.2898919,5.73157143 L56.2628649,5.73157143 L51.2358378,5.73157143 L46.2088108,5.73157143 L46.2088108,0.683952381 L51.2358378,0.683952381 Z M76.370973,10.7791905 L76.370973,15.8268095 L76.370973,20.8744286 L81.398,20.8744286 L86.425027,20.8744286 L91.4520541,20.8744286 L91.4520541,25.9220476 L86.425027,25.9220476 L81.398,25.9220476 L76.370973,25.9220476 L71.3439459,25.9220476 L71.3439459,20.8744286 L71.3439459,15.8268095 L71.3439459,10.7791905 L71.3439459,5.73157143 L76.370973,5.73157143 L76.370973,10.7791905 Z M56.2628649,36.0172857 L56.2628649,41.0649048 L56.2628649,46.1125238 L56.2628649,51.1601429 L51.2358378,51.1601429 L46.2088108,51.1601429 L41.1817838,51.1601429 L36.1547568,51.1601429 L31.1277297,51.1601429 L26.1007027,51.1601429 L21.0736757,51.1601429 L21.0736757,46.1125238 L21.0736757,41.0649048 L26.1007027,41.0649048 L26.1007027,46.1125238 L31.1277297,46.1125238 L36.1547568,46.1125238 L41.1817838,46.1125238 L46.2088108,46.1125238 L51.2358378,46.1125238 L51.2358378,41.0649048 L51.2358378,36.0172857 L51.2358378,30.9696667 L56.2628649,30.9696667 L56.2628649,36.0172857 Z M5.99259459,30.9696667 L5.99259459,25.9220476 L11.0196216,25.9220476 L11.0196216,30.9696667 L11.0196216,36.0172857 L5.99259459,36.0172857 L5.99259459,30.9696667 Z M16.0466486,41.0649048 L11.0196216,41.0649048 L11.0196216,36.0172857 L16.0466486,36.0172857 L21.0736757,36.0172857 L21.0736757,41.0649048 L16.0466486,41.0649048 Z M66.3169189,10.7791905 L66.3169189,15.8268095 L61.2898919,15.8268095 L61.2898919,10.7791905 L66.3169189,10.7791905 Z" id="Combined-Shape"></path>
        </g>
    </g>
</svg>
