<svg width="66px" height="40px" viewBox="0 0 66 40" version="1.1" xmlns="http://www.w3.org/2000/svg" xmlns:xlink="http://www.w3.org/1999/xlink">
    <g id="Page-1" stroke="none" stroke-width="1" fill="none" fill-rule="evenodd">
        <g id="Group" fill="#000000">
            <path d="M60.063,9.813 L55.063,9.813 L50.063,9.813 L40.063,9.813 L30.938,9.813 L30.938,0.25 L10.938,0.25 L10.938,5.25 L5.938,5.25 L5.938,10.25 L0.938,10.25 L0.938,15.25 L5.938,15.25 L10.938,15.25 L10.938,20.25 L20.063,20.25 L20.063,39.812 L50.063,39.812 L50.063,29.812 L60.063,29.812 L60.063,19.812 L65.063,19.812 L65.063,9.812 L60.063,9.812 L60.063,9.813 Z M23.439,12.75 L18.439,12.75 L18.439,7.75 L23.439,7.75 L23.439,12.75 Z" id="Shape" transform="translate(33.000500, 20.031000) scale(-1, 1) translate(-33.000500, -20.031000) "></path>
        </g>
    </g>
</svg>
