
<svg width="92px" height="52px" viewBox="0 0 92 52" version="1.1" xmlns="http://www.w3.org/2000/svg" xmlns:xlink="http://www.w3.org/1999/xlink">
    <!-- Generator: Sketch 48.2 (47327) - http://www.bohemiancoding.com/sketch -->
    <desc>Created with Sketch.</desc>
    <defs></defs>
    <g id="Page-1" stroke="none" stroke-width="1" fill="none" fill-rule="evenodd">
        <g id="noun_146086" transform="translate(-1.000000, 0.000000)" fill="#000000" fill-rule="nonzero">
            <polygon id="Shape" points="42.1817838 46.1125238 37.1547568 46.1125238 37.1547568 51.1601429 42.1817838 51.1601429"></polygon>
            <polygon id="Shape" points="37.1547568 46.1125238 32.1277297 46.1125238 32.1277297 51.1601429 37.1547568 51.1601429"></polygon>
            <polygon id="Shape" points="32.1277297 46.1125238 27.1007027 46.1125238 27.1007027 51.1601429 32.1277297 51.1601429"></polygon>
            <polygon id="Shape" points="27.1007027 46.1125238 22.0736757 46.1125238 22.0736757 51.1601429 27.1007027 51.1601429"></polygon>
            <polygon id="Shape" points="27.1007027 41.0649048 22.0736757 41.0649048 22.0736757 46.1125238 27.1007027 46.1125238"></polygon>
            <polygon id="Shape" points="22.0736757 36.0172857 17.0466486 36.0172857 17.0466486 41.0649048 22.0736757 41.0649048"></polygon>
            <polygon id="Shape" points="17.0466486 36.0172857 12.0196216 36.0172857 12.0196216 41.0649048 17.0466486 41.0649048"></polygon>
            <polygon id="Shape" points="12.0196216 30.9696667 6.99259459 30.9696667 6.99259459 36.0172857 12.0196216 36.0172857"></polygon>
            <polygon id="Shape" points="12.0196216 25.9220476 6.99259459 25.9220476 6.99259459 30.9696667 12.0196216 30.9696667"></polygon>
            <polygon id="Shape" points="6.99259459 20.8744286 1.96556757 20.8744286 1.96556757 25.9220476 6.99259459 25.9220476"></polygon>
            <polygon id="Shape" points="6.99259459 15.8268095 1.96556757 15.8268095 1.96556757 20.8744286 6.99259459 20.8744286"></polygon>
            <polygon id="Shape" points="12.0196216 15.8268095 6.99259459 15.8268095 6.99259459 20.8744286 12.0196216 20.8744286"></polygon>
            <polygon id="Shape" points="17.0466486 15.8268095 12.0196216 15.8268095 12.0196216 20.8744286 17.0466486 20.8744286"></polygon>
            <polygon id="Shape" points="47.2088108 46.1125238 42.1817838 46.1125238 42.1817838 51.1601429 47.2088108 51.1601429"></polygon>
            <polygon id="Shape" points="52.2358378 46.1125238 47.2088108 46.1125238 47.2088108 51.1601429 52.2358378 51.1601429"></polygon>
            <polygon id="Shape" points="57.2628649 46.1125238 52.2358378 46.1125238 52.2358378 51.1601429 57.2628649 51.1601429"></polygon>
            <polygon id="Shape" points="57.2628649 41.0649048 52.2358378 41.0649048 52.2358378 46.1125238 57.2628649 46.1125238"></polygon>
            <polygon id="Shape" points="57.2628649 36.0172857 52.2358378 36.0172857 52.2358378 41.0649048 57.2628649 41.0649048"></polygon>
            <polygon id="Shape" points="57.2628649 30.9696667 52.2358378 30.9696667 52.2358378 36.0172857 57.2628649 36.0172857"></polygon>
            <polygon id="Shape" points="67.3169189 25.9220476 62.2898919 25.9220476 62.2898919 30.9696667 67.3169189 30.9696667"></polygon>
            <polygon id="Shape" points="72.3439459 25.9220476 67.3169189 25.9220476 67.3169189 30.9696667 72.3439459 30.9696667"></polygon>
            <polygon id="Shape" points="77.370973 20.8744286 72.3439459 20.8744286 72.3439459 25.9220476 77.370973 25.9220476"></polygon>
            <polygon id="Shape" points="82.398 20.8744286 77.370973 20.8744286 77.370973 25.9220476 82.398 25.9220476"></polygon>
            <polygon id="Shape" points="87.425027 20.8744286 82.398 20.8744286 82.398 25.9220476 87.425027 25.9220476"></polygon>
            <polygon id="Shape" points="92.4520541 20.8744286 87.425027 20.8744286 87.425027 25.9220476 92.4520541 25.9220476"></polygon>
            <polygon id="Shape" points="77.370973 15.8268095 72.3439459 15.8268095 72.3439459 20.8744286 77.370973 20.8744286"></polygon>
            <polygon id="Shape" points="77.370973 10.7791905 72.3439459 10.7791905 72.3439459 15.8268095 77.370973 15.8268095"></polygon>
            <polygon id="Shape" points="77.370973 5.73157143 72.3439459 5.73157143 72.3439459 10.7791905 77.370973 10.7791905"></polygon>
            <polygon id="Shape" points="67.3169189 0.683952381 62.2898919 0.683952381 62.2898919 5.73157143 67.3169189 5.73157143"></polygon>
            <polygon id="Shape" points="72.3439459 0.683952381 67.3169189 0.683952381 67.3169189 5.73157143 72.3439459 5.73157143"></polygon>
            <polygon id="Shape" points="62.2898919 0.683952381 57.2628649 0.683952381 57.2628649 5.73157143 62.2898919 5.73157143"></polygon>
            <polygon id="Shape" points="57.2628649 0.683952381 52.2358378 0.683952381 52.2358378 5.73157143 57.2628649 5.73157143"></polygon>
            <polygon id="Shape" points="67.3169189 10.7791905 62.2898919 10.7791905 62.2898919 15.8268095 67.3169189 15.8268095"></polygon>
            <polygon id="Shape" points="52.2358378 0.683952381 47.2088108 0.683952381 47.2088108 5.73157143 52.2358378 5.73157143"></polygon>
            <polygon id="Shape" points="47.2088108 5.73157143 42.1817838 5.73157143 42.1817838 10.7791905 47.2088108 10.7791905"></polygon>
            <polygon id="Shape" points="47.2088108 15.8268095 42.1817838 15.8268095 42.1817838 20.8744286 47.2088108 20.8744286"></polygon>
            <polygon id="Shape" points="47.2088108 10.7791905 42.1817838 10.7791905 42.1817838 15.8268095 47.2088108 15.8268095"></polygon>
            <polygon id="Shape" points="42.1817838 15.8268095 37.1547568 15.8268095 37.1547568 20.8744286 42.1817838 20.8744286"></polygon>
            <polygon id="Shape" points="37.1547568 15.8268095 32.1277297 15.8268095 32.1277297 20.8744286 37.1547568 20.8744286"></polygon>
            <polygon id="Shape" points="32.1277297 15.8268095 27.1007027 15.8268095 27.1007027 20.8744286 32.1277297 20.8744286"></polygon>
            <polygon id="Shape" points="27.1007027 15.8268095 22.0736757 15.8268095 22.0736757 20.8744286 27.1007027 20.8744286"></polygon>
            <polygon id="Shape" points="22.0736757 15.8268095 17.0466486 15.8268095 17.0466486 20.8744286 22.0736757 20.8744286"></polygon>
            <polygon id="Shape" points="62.2898919 25.9220476 57.2628649 25.9220476 57.2628649 30.9696667 62.2898919 30.9696667"></polygon>
        </g>
    </g>
</svg>
